<?xml version="1.0" encoding="utf-8"?>
<svg width="64" height="64" version="1.1"
	 xmlns="http://www.w3.org/2000/svg" xmlns:xlink="http://www.w3.org/1999/xlink" x="0px" y="0px" viewBox="0 0 550 433"
	 style="enable-background:new 0 0 550 433;" xml:space="preserve">
<style type="text/css">
	.st0{fill:#31ACE2;}
	.st1{fill:#FFFFFF;}
</style>
<switch>
	<g>
		<g id="Слой_1">
			<path class="st0" d="M509.8,433H40.2C18,433,0,415,0,392.8V40.2C0,18,18,0,40.2,0h469.7C532,0,550,18,550,40.2v352.7
				C550,415,532,433,509.8,433z"/>
		</g>
		<g id="Слой_2">
			<g>
				<path class="st1" d="M488.5,195.3v-38.5h-27.8l9.8-44.7l-47,0l-9.8,44.7h-43l9.8-44.7l-47,0l-9.8,44.7h-40.9v38.5h32.4
					L305,241.8h-35.2v38.5h26.8l-9.8,44.6h47l9.8-44.6h43l-9.8,44.6h47l9.8-44.6h41.9v-38.5H442l10.2-46.5H488.5z M395,241.8h-43
					l10.2-46.5h43L395,241.8z"/>
				<path class="st1" d="M263.7,112.2l-9.2,42.7c0,0-78.4,0-111,0c-10,0-21.8,6.3-21.8,20.6c0,15.7,12.1,20.8,21.8,20.8
					c19.7,0.1,15.5,0,39.5,0c14.5,0,35.7,4.8,48.6,16.9c11.4,10.7,22.3,24.2,22.3,47.1c0,16.7-3.8,26.4-11,35.7
					c-13.4,17.3-32.4,28.1-50.8,28.3c-53.6,0.3-137.8,0-137.8,0l9.8-42.8c0,0,86.9,0,119,0c11,0,24.4-5.3,24.4-21.3
					c0-15.5-13.2-20-24.4-20.1c-24.4-0.1-24.4-0.1-42.3-0.7c-9.6-0.3-30.5-3.5-46.5-19.5c-14.9-14.9-18.3-32.3-18.3-44.4
					c0-4-1.1-18.7,12.4-36.6s34.6-24.5,39.7-25.4s10.6-1.4,12.9-1.5C143.3,112.1,263.7,112.2,263.7,112.2z"/>
			</g>
		</g>
	</g>
</switch>
</svg>